<?xml version="1.0" standalone="no"?>
<!DOCTYPE svg PUBLIC "-//W3C//DTD SVG 20010904//EN"
 "http://www.w3.org/TR/2001/REC-SVG-20010904/DTD/svg10.dtd">
<svg version="1.0" xmlns="http://www.w3.org/2000/svg"
 width="600.000000pt" height="600.000000pt" viewBox="0 0 600.000000 600.000000"
 preserveAspectRatio="xMidYMid meet">
<metadata>
Created by potrace 1.12, written by Peter Selinger 2001-2015
</metadata>
<g transform="translate(0.000000,600.000000) scale(0.100000,-0.100000)"
fill="#ffffff" stroke="none">
<path d="M3495 5855 c-88 -20 -152 -64 -191 -130 -52 -89 -54 -113 -54 -617
-1 -446 0 -469 20 -528 36 -108 80 -156 178 -196 47 -19 72 -22 157 -20 84 1
109 6 156 28 91 42 145 111 170 215 13 55 20 549 8 574 -7 13 -32 16 -163 16
-137 0 -156 -2 -157 -16 -1 -9 -2 -55 -2 -104 -2 -80 0 -87 18 -89 57 -4 71
-5 80 -6 11 -2 13 -265 2 -323 -4 -20 -18 -45 -30 -57 -48 -45 -148 -36 -184
16 -17 25 -18 59 -19 482 -2 361 1 462 11 488 20 45 69 73 119 66 86 -11 109
-53 110 -204 l1 -95 106 -2 c93 -2 107 0 111 15 4 15 2 197 -2 197 -1 0 -3 17
-6 37 -15 120 -113 228 -231 253 -55 12 -159 12 -208 0z"/>
<path d="M1264 5839 c-16 -3 -28 -10 -27 -15 4 -20 32 -199 38 -239 3 -22 7
-49 9 -60 2 -11 6 -40 10 -65 4 -25 9 -56 11 -70 3 -14 7 -38 9 -55 3 -16 12
-70 20 -120 9 -49 18 -110 22 -135 3 -25 8 -55 10 -67 6 -34 11 -62 19 -118 4
-27 9 -59 11 -70 11 -59 44 -268 49 -315 2 -14 4 -25 5 -25 1 0 3 -16 6 -35 2
-19 6 -44 9 -55 2 -11 4 -22 4 -25 1 -6 330 -5 336 1 2 3 6 18 9 34 3 17 8 41
11 55 3 14 7 43 9 65 3 22 12 78 20 125 8 47 18 105 21 130 3 25 8 53 11 62 3
9 6 32 8 50 2 18 9 60 14 93 6 33 14 78 17 100 3 23 7 50 9 60 4 21 15 89 22
140 2 17 7 44 11 60 3 17 7 41 8 55 2 14 6 43 10 65 3 22 8 54 11 70 9 53 14
89 24 145 5 30 12 72 15 94 3 21 8 42 11 47 9 15 -16 19 -119 22 -91 2 -97 1
-98 -18 0 -11 -2 -29 -5 -40 -2 -11 -6 -40 -10 -65 -3 -25 -10 -63 -14 -84 -5
-22 -7 -44 -4 -48 3 -4 2 -9 -3 -10 -26 -4 -283 -4 -284 1 0 3 -2 15 -5 26 -2
11 -6 34 -8 52 -2 17 -10 66 -17 107 l-12 76 -51 1 c-28 0 -67 1 -87 2 -19 1
-49 -1 -65 -4z m491 -509 c-6 -46 -19 -135 -30 -205 -6 -39 -8 -51 -20 -143
-3 -24 -10 -66 -16 -95 -5 -29 -12 -74 -16 -102 -3 -27 -7 -59 -9 -70 -1 -11
-3 -31 -4 -45 -1 -24 -2 -24 -10 -4 -9 22 -10 31 -30 169 -6 44 -14 94 -16
110 -3 17 -7 46 -10 65 -2 19 -6 46 -9 60 -2 14 -7 45 -10 70 -3 25 -10 70
-15 100 -20 113 -20 129 -3 132 9 2 59 3 110 3 l94 0 -6 -45z"/>
<path d="M159 5825 c-4 -50 -3 -1449 2 -1456 3 -6 48 -8 100 -7 l94 3 2 345
c2 190 3 347 4 350 1 3 1 8 0 13 -2 11 -3 188 -1 227 1 31 2 33 10 12 5 -12
12 -44 15 -70 3 -26 8 -58 12 -72 3 -14 7 -34 8 -45 3 -20 31 -187 39 -235 3
-14 7 -41 10 -60 3 -19 7 -44 10 -55 5 -26 18 -113 22 -145 1 -14 3 -25 4 -25
1 0 3 -9 4 -20 4 -26 15 -91 22 -130 6 -28 10 -54 13 -81 1 -14 60 -24 67 -12
3 5 10 6 15 2 12 -7 129 -7 136 0 3 2 6 15 8 28 1 12 6 39 10 58 3 19 8 51 10
71 2 19 8 64 14 100 6 35 13 78 15 94 2 17 9 62 16 100 6 39 13 86 15 105 2
19 6 46 9 60 2 14 7 43 10 65 3 22 8 51 11 65 4 25 9 60 21 150 18 142 22 70
23 -392 l1 -508 110 0 110 0 0 738 0 737 -160 0 c-178 1 -165 6 -175 -75 -3
-25 -10 -74 -16 -110 -6 -36 -12 -81 -15 -100 -2 -19 -9 -64 -15 -100 -6 -36
-13 -81 -15 -100 -19 -136 -25 -175 -29 -190 -3 -8 -7 -35 -10 -60 -7 -55 -14
-109 -19 -135 -4 -20 -19 -124 -20 -137 -2 -13 -13 -18 -14 -6 -1 21 -11 93
-13 98 -2 6 -3 12 -13 80 -5 30 -10 64 -13 75 -2 11 -6 34 -8 50 -2 17 -11 73
-20 125 -9 52 -18 109 -21 125 -3 17 -7 44 -10 60 -2 17 -7 44 -9 60 -12 81
-16 101 -20 116 -3 9 -7 36 -10 60 -10 91 -17 134 -25 149 -7 12 -37 15 -164
15 -102 1 -156 -3 -157 -10z"/>
<path d="M2190 5832 l-45 -3 2 -731 c1 -401 4 -733 7 -736 11 -10 606 -7 609
3 3 9 1 179 -2 197 0 4 -67 7 -148 7 -82 0 -167 0 -190 0 l-43 1 0 630 c0 347
-3 630 -7 631 -32 3 -146 3 -183 1z"/>
<path d="M2973 5832 c-89 -2 -103 -5 -104 -20 -6 -127 -2 -1445 5 -1449 11 -7
214 -8 221 -1 3 3 5 144 5 314 1 1098 0 1152 -12 1155 -7 2 -59 3 -115 1z"/>
<path d="M4121 5830 l-34 -5 1 -705 c0 -388 1 -718 1 -735 l1 -30 115 1 c63 0
118 3 121 7 3 3 32 104 65 224 33 120 73 268 90 328 17 61 46 169 65 240 20
72 44 159 54 195 l18 65 1 -527 1 -528 23 -1 c94 -4 164 -4 175 -1 9 3 12 160
12 738 l0 734 -27 1 c-31 0 -177 0 -234 0 -33 -1 -37 -4 -43 -33 -3 -18 -13
-55 -21 -83 -15 -50 -143 -517 -150 -545 -1 -8 -11 -42 -20 -75 -9 -33 -19
-72 -22 -88 -3 -15 -8 -29 -12 -31 -3 -2 -6 189 -6 425 0 236 -2 429 -5 430
-28 3 -142 3 -169 -1z"/>
<path d="M5155 5823 c-7 -6 -16 -38 -20 -70 -3 -32 -8 -65 -10 -73 -10 -48
-25 -140 -30 -174 -2 -21 -6 -46 -9 -55 -3 -9 -8 -43 -11 -76 -4 -32 -8 -62
-10 -65 -3 -5 -11 -51 -20 -117 -2 -15 -10 -68 -19 -118 -8 -49 -18 -106 -20
-125 -3 -19 -8 -48 -11 -65 -4 -16 -8 -43 -10 -60 -3 -31 -13 -91 -21 -129 -2
-11 -7 -39 -9 -61 -3 -22 -7 -51 -10 -65 -4 -23 -9 -53 -21 -125 -2 -16 -7
-42 -10 -57 -3 -17 -1 -28 5 -29 6 0 54 0 106 0 52 0 101 0 109 0 9 1 17 26
26 84 6 45 14 98 17 117 3 19 6 42 8 50 2 13 26 15 146 15 l143 0 13 -80 c7
-44 15 -102 18 -130 3 -27 8 -51 10 -53 6 -7 207 -8 210 -1 2 3 -4 57 -15 120
-10 63 -21 134 -25 159 -4 24 -8 47 -10 50 -2 3 -6 30 -9 60 -4 30 -10 69 -13
85 -3 17 -7 39 -9 50 -1 11 -10 65 -19 120 -21 128 -21 126 -34 215 -6 41 -13
82 -16 90 -2 8 -7 35 -10 60 -2 25 -7 54 -9 65 -5 26 -16 92 -30 185 -3 19 -7
44 -10 55 -10 56 -19 121 -17 133 3 19 -12 21 -178 24 -109 2 -158 0 -166 -9z
m190 -333 c3 -30 8 -66 10 -80 5 -31 26 -167 30 -197 3 -24 15 -97 20 -124 2
-9 6 -40 10 -70 3 -30 8 -61 10 -69 2 -8 6 -37 10 -64 3 -27 8 -52 10 -56 2
-3 -47 -5 -108 -5 l-112 0 1 25 c2 29 11 99 19 150 10 55 33 210 40 260 3 25
8 59 12 75 3 17 7 41 9 55 13 117 22 166 29 158 2 -2 6 -28 10 -58z"/>
<path d="M161 4145 c-2 -55 -2 -106 -2 -112 1 -11 1 -56 1 -120 -1 -188 -1
-350 -1 -358 0 -5 1 -34 3 -63 2 -28 -1 -52 -5 -52 -5 0 -5 -5 -1 -11 3 -6 6
-98 6 -205 0 -141 3 -194 11 -195 7 0 19 -2 27 -4 8 -1 35 -6 60 -10 53 -7 84
-12 126 -19 17 -3 46 -8 65 -10 46 -6 108 -16 139 -21 14 -2 45 -7 70 -10 25
-3 70 -10 100 -15 30 -5 75 -12 100 -15 25 -3 83 -12 130 -20 47 -7 106 -16
132 -20 26 -3 53 -7 60 -10 7 -2 36 -6 63 -9 28 -3 61 -8 75 -11 26 -5 71 -12
135 -20 22 -2 49 -6 60 -9 11 -2 43 -7 70 -10 28 -4 64 -10 80 -12 35 -6 67
-11 115 -18 19 -3 67 -10 105 -16 39 -6 84 -13 100 -15 17 -2 46 -7 65 -10 19
-3 53 -8 75 -11 22 -3 51 -7 65 -9 38 -6 171 -26 205 -31 17 -2 55 -9 85 -14
30 -5 73 -12 95 -15 52 -6 125 -17 150 -21 11 -2 40 -7 65 -10 25 -3 52 -8 62
-9 9 -2 38 -7 65 -11 26 -3 57 -8 68 -10 11 -2 40 -7 65 -10 25 -3 52 -7 60
-9 8 -2 39 -7 69 -10 30 -4 63 -9 75 -11 12 -2 39 -6 61 -9 22 -3 51 -7 65
-10 14 -3 36 -7 50 -9 14 -3 45 -8 70 -11 25 -3 56 -7 70 -9 14 -3 61 -10 105
-16 44 -6 94 -14 110 -16 17 -3 44 -7 60 -9 17 -3 75 -11 130 -20 55 -8 104
-15 109 -15 40 0 -119 -33 -219 -45 -16 -2 -59 -9 -95 -15 -36 -6 -77 -13 -93
-16 -54 -8 -82 -12 -112 -18 -16 -3 -75 -12 -130 -21 -55 -9 -111 -18 -125
-20 -14 -2 -43 -7 -65 -10 -22 -3 -62 -10 -90 -15 -27 -5 -68 -12 -89 -15 -21
-3 -48 -8 -60 -10 -12 -3 -37 -7 -56 -10 -19 -2 -44 -6 -55 -8 -11 -3 -40 -8
-65 -11 -25 -3 -56 -8 -70 -11 -48 -8 -165 -27 -195 -31 -16 -2 -55 -8 -85
-14 -50 -9 -74 -13 -150 -25 -14 -2 -79 -13 -145 -24 -66 -11 -138 -23 -160
-26 -23 -3 -52 -8 -65 -10 -14 -3 -43 -7 -65 -10 -22 -3 -51 -7 -65 -10 -14
-3 -36 -7 -50 -9 -14 -3 -68 -12 -120 -20 -52 -9 -106 -18 -120 -20 -14 -3
-41 -7 -60 -10 -19 -3 -120 -19 -225 -36 -104 -17 -203 -33 -220 -35 -16 -3
-41 -7 -55 -10 -14 -3 -38 -7 -55 -9 -16 -2 -46 -7 -65 -10 -73 -13 -440 -72
-495 -81 -22 -3 -47 -7 -55 -10 -8 -2 -37 -6 -64 -10 -68 -8 -70 -9 -77 -19
-9 -12 -13 -119 -7 -214 2 -28 -1 -52 -5 -52 -5 0 -5 -5 -1 -11 4 -6 6 -86 5
-178 -1 -91 -2 -172 -2 -178 1 -12 1 -76 1 -120 0 -10 0 -116 0 -235 1 -198 3
-218 18 -219 9 0 1260 -2 2779 -2 2448 -2 2762 0 2765 13 2 8 3 179 3 380 l-1
365 -1937 0 c-1065 0 -1937 3 -1937 8 0 4 6 7 13 8 6 0 21 2 32 5 11 2 40 6
65 9 25 4 52 8 60 10 8 3 33 7 55 10 22 4 51 8 65 11 14 2 41 7 60 10 19 3 46
7 60 10 66 11 327 55 354 59 17 2 45 7 61 10 30 5 83 14 120 20 11 2 36 6 55
9 32 5 367 60 435 72 17 3 41 7 55 9 89 14 155 25 184 31 11 2 41 7 66 10 25
3 52 7 61 10 9 2 34 7 55 10 21 2 133 21 248 40 116 20 220 38 231 39 11 2
133 22 270 44 138 23 264 44 280 47 17 2 41 6 55 9 14 3 40 7 58 10 17 3 44 7
60 10 15 2 194 32 397 65 204 34 381 64 394 69 l25 7 0 408 c1 264 -3 410 -9
412 -11 3 -70 13 -125 20 -19 2 -60 9 -90 14 -30 5 -75 12 -100 15 -25 3 -56
8 -70 10 -55 9 -167 26 -197 30 -17 2 -57 8 -90 14 -32 6 -76 13 -98 16 -55 7
-126 17 -150 21 -11 3 -36 7 -55 9 -74 11 -116 17 -130 20 -14 2 -55 8 -150
21 -19 3 -42 7 -50 9 -8 2 -37 7 -65 10 -27 4 -104 15 -170 25 -172 27 -446
69 -491 75 -21 3 -48 7 -59 9 -11 2 -45 7 -75 11 -30 4 -64 9 -75 11 -11 2
-40 7 -65 10 -25 3 -52 7 -60 9 -8 2 -37 7 -65 11 -27 3 -59 8 -70 10 -11 2
-40 7 -65 10 -25 3 -52 7 -60 9 -8 2 -37 7 -65 10 -50 6 -57 8 -125 19 -37 6
-92 14 -149 22 -19 2 -48 7 -65 10 -50 8 -78 12 -126 19 -25 3 -70 10 -100 15
-30 6 -75 12 -100 15 -49 6 -91 13 -130 20 -14 3 -41 7 -60 9 -19 3 -48 7 -65
10 -16 2 -66 10 -110 16 -44 7 -89 14 -100 16 -11 2 -42 7 -70 10 -27 4 -52 8
-54 10 -2 2 884 4 1968 4 1085 0 1976 2 1980 4 4 3 7 761 2 811 -1 7 -931 10
-2780 10 l-2779 0 -1 -100z"/>
</g>
</svg>
